<svg width="14" height="304" viewBox="0 0 14 304" fill="none" xmlns="http://www.w3.org/2000/svg">
<rect x="4" y="4" width="6" height="6" rx="3" fill="#F0F0F4" style="fill:#F0F0F4;fill:color(display-p3 0.9412 0.9412 0.9569);fill-opacity:1;"/>
<rect x="4" y="28.1011" width="6" height="6" rx="3" fill="#F0F0F4" style="fill:#F0F0F4;fill:color(display-p3 0.9412 0.9412 0.9569);fill-opacity:1;"/>
<rect x="4" y="52.2026" width="6" height="6" rx="3" fill="#F0F0F4" style="fill:#F0F0F4;fill:color(display-p3 0.9412 0.9412 0.9569);fill-opacity:1;"/>
<rect x="4" y="76.3037" width="6" height="6" rx="3" fill="#F0F0F4" style="fill:#F0F0F4;fill:color(display-p3 0.9412 0.9412 0.9569);fill-opacity:1;"/>
<rect x="4" y="100.405" width="6" height="6" rx="3" fill="#F0F0F4" style="fill:#F0F0F4;fill:color(display-p3 0.9412 0.9412 0.9569);fill-opacity:1;"/>
<rect x="4" y="124.506" width="6" height="6" rx="3" fill="#F0F0F4" style="fill:#F0F0F4;fill:color(display-p3 0.9412 0.9412 0.9569);fill-opacity:1;"/>
<rect x="4" y="148.608" width="6" height="6" rx="3" fill="#F0F0F4" style="fill:#F0F0F4;fill:color(display-p3 0.9412 0.9412 0.9569);fill-opacity:1;"/>
<rect x="4" y="172.709" width="6" height="6" rx="3" fill="#F0F0F4" style="fill:#F0F0F4;fill:color(display-p3 0.9412 0.9412 0.9569);fill-opacity:1;"/>
<rect x="4" y="196.811" width="6" height="6" rx="3" fill="#F0F0F4" style="fill:#F0F0F4;fill:color(display-p3 0.9412 0.9412 0.9569);fill-opacity:1;"/>
<rect x="4" y="220.912" width="6" height="6" rx="3" fill="#F0F0F4" style="fill:#F0F0F4;fill:color(display-p3 0.9412 0.9412 0.9569);fill-opacity:1;"/>
<rect x="4" y="245.013" width="6" height="6" rx="3" fill="#F0F0F4" style="fill:#F0F0F4;fill:color(display-p3 0.9412 0.9412 0.9569);fill-opacity:1;"/>
<rect x="4" y="269.114" width="6" height="6" rx="3" fill="#F0F0F4" style="fill:#F0F0F4;fill:color(display-p3 0.9412 0.9412 0.9569);fill-opacity:1;"/>
<rect x="4" y="293.216" width="6" height="6" rx="3" fill="#F0F0F4" style="fill:#F0F0F4;fill:color(display-p3 0.9412 0.9412 0.9569);fill-opacity:1;"/>
</svg>
