<svg width="40" height="30" viewBox="0 0 40 30" fill="none" xmlns="http://www.w3.org/2000/svg">
<path d="M0 4.60938V4.375C0.078125 1.95312 2.10938 0 4.60938 0H35.4688C37.8906 0 39.9219 1.95312 40 4.375V25C40 27.7344 37.7344 30 35 30H5C2.26562 30 0 27.7344 0 25V4.60938ZM37.5 8.75L23.6719 18.8281C21.4844 20.4688 18.5156 20.4688 16.3281 18.8281L2.5 8.75V25C2.5 26.4062 3.59375 27.5 5 27.5H35C36.4062 27.5 37.5 26.4062 37.5 25V8.75ZM37.5 4.60938C37.5 3.4375 36.5625 2.5 35.4688 2.5H4.60938C3.4375 2.5 2.5 3.4375 2.5 4.60938C2.5 5.23438 2.8125 5.85938 3.35938 6.25L17.8125 16.7969C19.1406 17.8125 20.9375 17.8125 22.1875 16.7969L36.6406 6.25C37.1875 5.85938 37.5 5.23438 37.5 4.53125V4.60938Z" fill="#D0009E" style="fill:#D0009E;fill:color(display-p3 0.8157 0.0000 0.6196);fill-opacity:1;"/>
</svg>
