<svg width="24" height="18" viewBox="0 0 24 18" fill="none" xmlns="http://www.w3.org/2000/svg">
<path d="M0 2.76562V2.625C0.046875 1.17188 1.26562 0 2.76562 0H21.2812C22.7344 0 23.9531 1.17188 24 2.625V15C24 16.6406 22.6406 18 21 18H3C1.35938 18 0 16.6406 0 15V2.76562ZM22.5 5.25L14.2031 11.2969C12.8906 12.2812 11.1094 12.2812 9.79688 11.2969L1.5 5.25V15C1.5 15.8438 2.15625 16.5 3 16.5H21C21.8438 16.5 22.5 15.8438 22.5 15V5.25ZM22.5 2.76562C22.5 2.0625 21.9375 1.5 21.2812 1.5H2.76562C2.0625 1.5 1.5 2.0625 1.5 2.76562C1.5 3.14062 1.6875 3.51562 2.01562 3.75L10.6875 10.0781C11.4844 10.6875 12.5625 10.6875 13.3125 10.0781L21.9844 3.75C22.3125 3.51562 22.5 3.14062 22.5 2.71875V2.76562Z" fill="#D0009E" style="fill:#D0009E;fill:color(display-p3 0.8157 0.0000 0.6196);fill-opacity:1;"/>
</svg>
