<svg width="64" height="41" viewBox="0 0 64 41" fill="none" xmlns="http://www.w3.org/2000/svg">
<g clip-path="url(#clip0_2790_12858)">
<path d="M64 0.29541H0V40.2954H64V0.29541Z" fill="white" style="fill:white;fill-opacity:1;"/>
<path d="M30.2605 0.29541H0V21.8332H30.2605V0.29541Z" fill="#3C3B6E" style="fill:#3C3B6E;fill:color(display-p3 0.2353 0.2314 0.4314);fill-opacity:1;"/>
<path d="M64 24.9045H0V27.9844H64V24.9045Z" fill="#AF2333" style="fill:#AF2333;fill:color(display-p3 0.6863 0.1373 0.2000);fill-opacity:1;"/>
<path d="M64 31.0601H0V34.1399H64V31.0601Z" fill="#AF2333" style="fill:#AF2333;fill:color(display-p3 0.6863 0.1373 0.2000);fill-opacity:1;"/>
<path d="M64 37.2112H0V40.2911H64V37.2112Z" fill="#AF2333" style="fill:#AF2333;fill:color(display-p3 0.6863 0.1373 0.2000);fill-opacity:1;"/>
<path d="M63.9992 0.29541H30.2598V3.3753H63.9992V0.29541Z" fill="#AF2333" style="fill:#AF2333;fill:color(display-p3 0.6863 0.1373 0.2000);fill-opacity:1;"/>
<path d="M2.58722 1.19495L2.31402 2.04738H1.42188L2.13901 2.56997L1.87008 3.41384L2.58722 2.89124L3.30435 3.41384L3.03116 2.56997L3.75256 2.04738H2.86041L2.58722 1.19495Z" fill="white" style="fill:white;fill-opacity:1;"/>
<path d="M7.60675 1.19495L7.32502 2.04738H6.44141L7.15854 2.56569L6.88108 3.41384L7.60248 2.89124L8.32388 3.41384L8.05069 2.56997L8.77209 2.04738H7.87994L7.60675 1.19495Z" fill="white" style="fill:white;fill-opacity:1;"/>
<path d="M12.6185 1.19495L12.341 2.04738H11.4531L12.1745 2.56997L11.9013 3.41384L12.6227 2.88696L13.3441 3.41384L13.0667 2.56569L13.7838 2.04738H12.8959L12.6185 1.19495Z" fill="white" style="fill:white;fill-opacity:1;"/>
<path d="M17.6341 1.19495L17.3609 2.04738H16.4688L17.1902 2.56997L16.917 3.41384L17.6341 2.89124L18.3555 3.41384L18.0823 2.56997L18.7994 2.04738H17.9116L17.6341 1.19495Z" fill="white" style="fill:white;fill-opacity:1;"/>
<path d="M22.6536 1.19495L22.3804 2.04738H21.4883L22.2097 2.56997L21.9365 3.41384L22.6536 2.89124L23.3708 3.41384L23.1018 2.56997L23.819 2.04738H22.9311L22.6536 1.19495Z" fill="white" style="fill:white;fill-opacity:1;"/>
<path d="M27.2249 2.56569L26.9475 3.41384L27.6689 2.88696L28.3903 3.41384L28.1128 2.56569L28.83 2.04738H27.9464L27.6732 1.19495L27.3914 2.04738H26.5078L27.2249 2.56569Z" fill="white" style="fill:white;fill-opacity:1;"/>
<path d="M5.10162 3.34534L4.81988 4.20634H3.92773L4.64487 4.72893L4.37594 5.57279L5.09735 5.05448L5.81875 5.57279L5.54556 4.72893L6.26696 4.20634H5.37481L5.10162 3.34534Z" fill="white" style="fill:white;fill-opacity:1;"/>
<path d="M10.1169 3.34534L9.83515 4.20634H8.94727L9.6644 4.72465L9.38694 5.57279L10.1126 5.0502L10.8383 5.57279L10.5608 4.72893L11.2822 4.20634H10.3943L10.1169 3.34534Z" fill="white" style="fill:white;fill-opacity:1;"/>
<path d="M15.1286 3.34534L14.8554 4.20634H13.959L14.6847 4.72893L14.4072 5.57279L15.1286 5.0502L15.8543 5.57279L15.5768 4.72893L16.2939 4.20634H15.4103L15.1286 3.34534Z" fill="white" style="fill:white;fill-opacity:1;"/>
<path d="M20.1481 3.34534L19.8749 4.20634H18.9785L19.6999 4.72893L19.4225 5.57279L20.1481 5.0502L20.8653 5.57279L20.5963 4.72893L21.3135 4.20634H20.4256L20.1481 3.34534Z" fill="white" style="fill:white;fill-opacity:1;"/>
<path d="M25.168 3.34534L24.8863 4.20634H23.9941L24.7198 4.72893L24.4423 5.57279L25.168 5.0502L25.8852 5.57279L25.612 4.72893L26.3334 4.20634H25.4455L25.168 3.34534Z" fill="white" style="fill:white;fill-opacity:1;"/>
<path d="M2.58722 5.50854L2.31402 6.36098H1.42188L2.13901 6.88786L1.87008 7.736L2.58722 7.21341L3.30435 7.736L3.03116 6.88786L3.75256 6.36098H2.86041L2.58722 5.50854Z" fill="white" style="fill:white;fill-opacity:1;"/>
<path d="M7.60675 5.50854L7.32929 6.36098H6.44141L7.15854 6.88786L6.88108 7.736L7.60248 7.21341L8.32388 7.736L8.05069 6.88786L8.77209 6.36098H7.87994L7.60675 5.50854Z" fill="white" style="fill:white;fill-opacity:1;"/>
<path d="M12.6185 5.50854L12.3453 6.36098H11.4531L12.1745 6.88786L11.9013 7.736L12.6227 7.20912L13.3441 7.736L13.0667 6.88786L13.7838 6.36098H12.8959L12.6185 5.50854Z" fill="white" style="fill:white;fill-opacity:1;"/>
<path d="M17.6341 5.50854L17.3609 6.36098H16.4688L17.1902 6.88786L16.917 7.736L17.6341 7.21341L18.3555 7.736L18.0823 6.88786L18.7994 6.36098H17.9116L17.6341 5.50854Z" fill="white" style="fill:white;fill-opacity:1;"/>
<path d="M22.6536 5.50854L22.3804 6.36098H21.4883L22.2097 6.88786L21.9365 7.736L22.6536 7.21341L23.3708 7.736L23.1018 6.88786L23.819 6.36098H22.9268L22.6536 5.50854Z" fill="white" style="fill:white;fill-opacity:1;"/>
<path d="M27.6732 5.50854L27.3957 6.36098H26.5078L27.2249 6.88786L26.9475 7.736L27.6689 7.20912L28.3903 7.736L28.1128 6.88786L28.83 6.36098H27.9464L27.6732 5.50854Z" fill="white" style="fill:white;fill-opacity:1;"/>
<path d="M5.10162 7.67175L4.81988 8.52418H3.92773L4.64914 9.04678L4.37594 9.89921L5.09735 9.37233L5.81875 9.89921L5.54556 9.04678L6.26696 8.52418H5.37481L5.10162 7.67175Z" fill="white" style="fill:white;fill-opacity:1;"/>
<path d="M10.1169 7.67175L9.83515 8.52418H8.94727L9.6644 9.0425L9.38694 9.89921L10.1126 9.36805L10.8383 9.89921L10.5608 9.04678L11.2822 8.52418H10.3943L10.1169 7.67175Z" fill="white" style="fill:white;fill-opacity:1;"/>
<path d="M15.1286 7.67175L14.8554 8.52418H13.959L14.6847 9.0425L14.4072 9.89921L15.1286 9.36805L15.8543 9.89921L15.5768 9.04678L16.2939 8.52418H15.4103L15.1286 7.67175Z" fill="white" style="fill:white;fill-opacity:1;"/>
<path d="M20.1481 7.67175L19.8749 8.52418H18.9785L19.6999 9.04678L19.4225 9.89921L20.1481 9.36805L20.8653 9.89921L20.5963 9.04678L21.3135 8.52418H20.4256L20.1481 7.67175Z" fill="white" style="fill:white;fill-opacity:1;"/>
<path d="M25.168 7.67175L24.8863 8.52418H23.9941L24.7198 9.04678L24.4423 9.89921L25.168 9.36805L25.8852 9.89921L25.612 9.0425L26.3334 8.52418H25.4412L25.168 7.67175Z" fill="white" style="fill:white;fill-opacity:1;"/>
<path d="M2.58722 9.83069L2.31402 10.6874H1.42188L2.13901 11.21L1.87008 12.0539L2.58722 11.5313L3.30435 12.0539L3.03116 11.21L3.75256 10.6874H2.86041L2.58722 9.83069Z" fill="white" style="fill:white;fill-opacity:1;"/>
<path d="M7.60675 9.83069L7.32502 10.6874H6.44141L7.15854 11.2057L6.88108 12.0539L7.60248 11.527L8.32388 12.0539L8.05069 11.21L8.77209 10.6874H7.87994L7.60675 9.83069Z" fill="white" style="fill:white;fill-opacity:1;"/>
<path d="M12.6185 9.83069L12.341 10.6874H11.4531L12.1745 11.21L11.9013 12.0539L12.6227 11.527L13.3441 12.0539L13.0667 11.2057L13.7838 10.6874H12.8959L12.6185 9.83069Z" fill="white" style="fill:white;fill-opacity:1;"/>
<path d="M17.6341 9.83069L17.3609 10.6874H16.4688L17.1902 11.21L16.917 12.0539L17.6341 11.5313L18.3555 12.0539L18.0823 11.21L18.7994 10.6874H17.9116L17.6341 9.83069Z" fill="white" style="fill:white;fill-opacity:1;"/>
<path d="M22.6536 9.83069L22.3804 10.6874H21.4883L22.2097 11.21L21.9365 12.0539L22.6536 11.5313L23.3708 12.0539L23.1018 11.21L23.819 10.6874H22.9311L22.6536 9.83069Z" fill="white" style="fill:white;fill-opacity:1;"/>
<path d="M27.6732 9.83069L27.3914 10.6874H26.5078L27.2249 11.2057L26.9475 12.0539L27.6689 11.527L28.3903 12.0539L28.1128 11.2057L28.83 10.6874H27.9464L27.6732 9.83069Z" fill="white" style="fill:white;fill-opacity:1;"/>
<path d="M5.10162 11.9852L4.81988 12.8462H3.92773L4.64487 13.3688L4.37594 14.2127L5.09735 13.6944L5.81875 14.2127L5.54556 13.3688L6.26696 12.8462H5.37481L5.10162 11.9852Z" fill="white" style="fill:white;fill-opacity:1;"/>
<path d="M10.1169 11.9852L9.83515 12.8462H8.94727L9.6644 13.3645L9.38694 14.2127L10.1126 13.6901L10.8383 14.2127L10.5608 13.3688L11.2822 12.8462H10.3943L10.1169 11.9852Z" fill="white" style="fill:white;fill-opacity:1;"/>
<path d="M15.1286 11.9852L14.8554 12.8462H13.959L14.6847 13.3688L14.4072 14.2127L15.1286 13.6901L15.8543 14.2127L15.5768 13.3688L16.2939 12.8462H15.4103L15.1286 11.9852Z" fill="white" style="fill:white;fill-opacity:1;"/>
<path d="M20.1481 11.9852L19.8749 12.8462H18.9785L19.6999 13.3688L19.4225 14.2127L20.1481 13.6901L20.8653 14.2127L20.5963 13.3688L21.3135 12.8462H20.4256L20.1481 11.9852Z" fill="white" style="fill:white;fill-opacity:1;"/>
<path d="M25.168 11.9852L24.8863 12.8462H23.9941L24.7198 13.3688L24.4423 14.2127L25.168 13.6901L25.8852 14.2127L25.612 13.3688L26.3334 12.8462H25.4455L25.168 11.9852Z" fill="white" style="fill:white;fill-opacity:1;"/>
<path d="M2.58722 14.1484L2.31402 15.0009H1.42188L2.13901 15.5277L1.87008 16.3759L2.58722 15.8533L3.30435 16.3759L3.03116 15.5277L3.75256 15.0009H2.86041L2.58722 14.1484Z" fill="white" style="fill:white;fill-opacity:1;"/>
<path d="M7.60675 14.1484L7.32502 15.0009H6.44141L7.15854 15.5277L6.88108 16.3759L7.60248 15.8533L8.32388 16.3759L8.05069 15.5277L8.77209 15.0009H7.87994L7.60675 14.1484Z" fill="white" style="fill:white;fill-opacity:1;"/>
<path d="M12.6185 14.1484L12.341 15.0009H11.4531L12.1745 15.5277L11.9013 16.3759L12.6227 15.849L13.3441 16.3759L13.0667 15.5277L13.7838 15.0009H12.8959L12.6185 14.1484Z" fill="white" style="fill:white;fill-opacity:1;"/>
<path d="M17.6341 14.1484L17.3609 15.0009H16.4688L17.1902 15.5277L16.917 16.3759L17.6341 15.8533L18.3555 16.3759L18.0823 15.5277L18.7994 15.0009H17.9116L17.6341 14.1484Z" fill="white" style="fill:white;fill-opacity:1;"/>
<path d="M22.6536 14.1484L22.3804 15.0009H21.4883L22.2097 15.5277L21.9365 16.3759L22.6536 15.8533L23.3708 16.3759L23.1018 15.5277L23.819 15.0009H22.9311L22.6536 14.1484Z" fill="white" style="fill:white;fill-opacity:1;"/>
<path d="M27.6732 14.1484L27.3914 15.0009H26.5078L27.2249 15.5277L26.9475 16.3759L27.6689 15.849L28.3903 16.3759L28.1128 15.5277L28.83 15.0009H27.9464L27.6732 14.1484Z" fill="white" style="fill:white;fill-opacity:1;"/>
<path d="M5.37481 17.1641L5.10162 16.3116L4.81988 17.1641H3.92773L4.64914 17.6867L4.37594 18.5434L5.09735 18.0122L5.81875 18.5434L5.54556 17.6867L6.26696 17.1641H5.37481Z" fill="white" style="fill:white;fill-opacity:1;"/>
<path d="M10.3943 17.1641L10.1169 16.3116L9.83515 17.1641H8.94727L9.6644 17.6824L9.38694 18.5434L10.1126 18.0122L10.8383 18.5434L10.5566 17.6867L11.2822 17.1641H10.3943Z" fill="white" style="fill:white;fill-opacity:1;"/>
<path d="M15.4103 17.1641L15.1286 16.3116L14.8554 17.1641H13.959L14.6847 17.6824L14.4072 18.5434L15.1286 18.0122L15.8543 18.5434L15.5768 17.6867L16.2939 17.1641H15.4103Z" fill="white" style="fill:white;fill-opacity:1;"/>
<path d="M20.4256 17.1641L20.1481 16.3116L19.8749 17.1641H18.9785L19.7042 17.6867L19.4225 18.5434L20.1481 18.0122L20.8653 18.5434L20.5921 17.6867L21.3135 17.1641H20.4256Z" fill="white" style="fill:white;fill-opacity:1;"/>
<path d="M25.4412 17.1641L25.168 16.3116L24.8863 17.1641H23.9941L24.7198 17.6867L24.4423 18.5434L25.168 18.0122L25.8852 18.5434L25.612 17.6824L26.3334 17.1641H25.4412Z" fill="white" style="fill:white;fill-opacity:1;"/>
<path d="M2.86041 19.323L2.58722 18.4706L2.31402 19.323H1.42188L2.14328 19.8456L1.87008 20.698L2.58722 20.1712L3.30435 20.698L3.03116 19.8456L3.75256 19.323H2.86041Z" fill="white" style="fill:white;fill-opacity:1;"/>
<path d="M7.87994 19.323L7.60675 18.4706L7.32502 19.323H6.44141L7.15854 19.8456L6.88108 20.698L7.60248 20.1712L8.32388 20.698L8.05069 19.8456L8.77209 19.323H7.87994Z" fill="white" style="fill:white;fill-opacity:1;"/>
<path d="M12.8959 19.323L12.6185 18.4706L12.341 19.323H11.4531L12.1788 19.8456L11.9013 20.698L12.6227 20.1669L13.3441 20.698L13.0667 19.8456L13.7838 19.323H12.8959Z" fill="white" style="fill:white;fill-opacity:1;"/>
<path d="M17.9116 19.323L17.6341 18.4706L17.3609 19.323H16.4688L17.1902 19.8456L16.917 20.698L17.6341 20.1712L18.3555 20.698L18.0823 19.8456L18.7994 19.323H17.9116Z" fill="white" style="fill:white;fill-opacity:1;"/>
<path d="M22.9311 19.323L22.6536 18.4706L22.3804 19.323H21.4883L22.2097 19.8456L21.9365 20.698L22.6536 20.1712L23.3708 20.698L23.1018 19.8456L23.819 19.323H22.9311Z" fill="white" style="fill:white;fill-opacity:1;"/>
<path d="M27.9464 19.323L27.6732 18.4706L27.3914 19.323H26.5078L27.2249 19.8456L26.9475 20.698L27.6689 20.1669L28.3903 20.698L28.1128 19.8456L28.83 19.323H27.9464Z" fill="white" style="fill:white;fill-opacity:1;"/>
<path d="M63.9992 6.45093H30.2598V9.53082H63.9992V6.45093Z" fill="#AF2333" style="fill:#AF2333;fill:color(display-p3 0.6863 0.1373 0.2000);fill-opacity:1;"/>
<path d="M63.9992 12.6022H30.2598V15.6821H63.9992V12.6022Z" fill="#AF2333" style="fill:#AF2333;fill:color(display-p3 0.6863 0.1373 0.2000);fill-opacity:1;"/>
<path d="M63.9992 18.749H30.2598V21.8289H63.9992V18.749Z" fill="#AF2333" style="fill:#AF2333;fill:color(display-p3 0.6863 0.1373 0.2000);fill-opacity:1;"/>
</g>
<defs>
<clipPath id="clip0_2790_12858">
<rect width="64" height="40" fill="white" style="fill:white;fill-opacity:1;" transform="translate(0 0.29541)"/>
</clipPath>
</defs>
</svg>
