<svg width="64" height="41" viewBox="0 0 64 41" fill="none" xmlns="http://www.w3.org/2000/svg">
<g clip-path="url(#clip0_18685_9686)">
<path d="M63.9957 0.29541H0V40.2954H63.9957V0.29541Z" fill="#1D2C77" style="fill:#1D2C77;fill:color(display-p3 0.1137 0.1725 0.4667);fill-opacity:1;"/>
<path d="M63.9957 0.308261V4.76318L49.8067 13.6302H63.9957V26.9478H49.8238L63.9957 35.7977V40.2697H56.8415L37.3337 28.0829V40.2697H26.6663V28.0829L7.15427 40.2697H0.0170746L0.012806 40.2826V40.2954L0 40.2697H0.012806V35.7934L14.1762 26.9478H0V13.6302H14.1933L0.012806 4.77174V0.308261H7.17562L26.6663 12.4822V0.29541H37.3337V12.4822L56.8244 0.308261H63.9957Z" fill="white" style="fill:white;fill-opacity:1;"/>
<path d="M42.6644 13.6388L49.3022 9.49233L49.315 9.47948L63.1369 0.843796L63.1455 0.830945L63.9864 0.30835H59.2055L37.875 13.6388H42.6644Z" fill="#DE0334" style="fill:#DE0334;fill:color(display-p3 0.8706 0.0118 0.2039);fill-opacity:1;"/>
<path d="M21.3527 13.6388L12.9947 8.41715L12.9861 8.4043L0.0179405 0.30835H0.0136719V3.28543L16.5761 13.6388H21.3527Z" fill="#DE0334" style="fill:#DE0334;fill:color(display-p3 0.8706 0.0118 0.2039);fill-opacity:1;"/>
<path d="M21.3993 26.9351L7.79081 35.4337L7.78654 35.4465L0.0175781 40.2955H4.77286L26.1503 26.9351H21.3993Z" fill="#DE0334" style="fill:#DE0334;fill:color(display-p3 0.8706 0.0118 0.2039);fill-opacity:1;"/>
<path d="M42.6191 26.9351L54.486 34.3456L54.4946 34.3585L64.0009 40.2955V37.3056L47.3958 26.9351H42.6191Z" fill="#DE0334" style="fill:#DE0334;fill:color(display-p3 0.8706 0.0118 0.2039);fill-opacity:1;"/>
<path d="M64 16.2988H35.1994V0.29541H28.7964V16.2988H0V24.3006H28.7964V40.2954H35.1994V24.3006H64V16.2988Z" fill="#DE0334" style="fill:#DE0334;fill:color(display-p3 0.8706 0.0118 0.2039);fill-opacity:1;"/>
</g>
<defs>
<clipPath id="clip0_18685_9686">
<rect width="64" height="40" fill="white" style="fill:white;fill-opacity:1;" transform="translate(0 0.29541)"/>
</clipPath>
</defs>
</svg>
