<svg width="64" height="41" viewBox="0 0 64 41" fill="none" xmlns="http://www.w3.org/2000/svg">
<g clip-path="url(#clip0_18685_9678)">
<path d="M47.9959 0.29541H15.998V40.2954H47.9959V0.29541Z" fill="white" style="fill:white;fill-opacity:1;"/>
<path d="M15.9989 0.29541H0V40.2954H15.9989V0.29541Z" fill="#E4330E" style="fill:#E4330E;fill:color(display-p3 0.8941 0.2000 0.0549);fill-opacity:1;"/>
<path d="M63.995 0.29541H47.9961V40.2954H63.995V0.29541Z" fill="#E4330E" style="fill:#E4330E;fill:color(display-p3 0.8941 0.2000 0.0549);fill-opacity:1;"/>
<path d="M31.9969 7.22632L29.79 11.3557C29.5382 11.8055 29.09 11.7626 28.6418 11.5099L27.0453 10.6789L28.2362 17.0228C28.4881 18.1794 27.6813 18.1794 27.2843 17.6825L24.4969 14.5512L24.0444 16.1404C23.9932 16.3503 23.7627 16.5688 23.4169 16.5174L19.891 15.772L20.8173 19.1518C21.0137 19.9014 21.1716 20.2141 20.6167 20.4112L19.3574 21.0023L25.4275 25.9498C25.6665 26.1383 25.7903 26.4724 25.7049 26.7808L25.1713 28.5285C27.263 28.2886 29.1327 27.9245 31.2243 27.7018C31.4078 27.6804 31.7195 27.9888 31.7152 28.203L31.4377 34.6112H32.4537L32.2915 28.2158C32.2915 28.0016 32.5732 27.6804 32.7567 27.7018C34.8484 27.9245 36.7223 28.2886 38.8097 28.5285L38.2761 26.7808C38.1907 26.4767 38.3103 26.1383 38.5536 25.9498L44.6236 21.0023L43.3644 20.4112C42.8137 20.2141 42.9674 19.9014 43.1637 19.1518L44.09 15.772L40.5641 16.5174C40.2184 16.5688 39.9921 16.3503 39.9366 16.1404L39.4841 14.5512L36.6967 17.6825C36.2997 18.1837 35.4972 18.1837 35.7491 17.0228L36.94 10.6789L35.3436 11.5099C34.8953 11.7626 34.4471 11.8012 34.1953 11.3557L31.9884 7.22632H31.9969Z" fill="#E4330E" style="fill:#E4330E;fill:color(display-p3 0.8941 0.2000 0.0549);fill-opacity:1;"/>
</g>
<defs>
<clipPath id="clip0_18685_9678">
<rect width="64" height="40" fill="white" style="fill:white;fill-opacity:1;" transform="translate(0 0.29541)"/>
</clipPath>
</defs>
</svg>
