<svg width="41" height="40" viewBox="0 0 41 40" fill="none" xmlns="http://www.w3.org/2000/svg">
<path d="M23.166 5C23.166 3.59375 22.0723 2.5 20.666 2.5C19.2598 2.5 18.166 3.59375 18.166 5C18.166 6.40625 19.2598 7.5 20.666 7.5C22.0723 7.5 23.166 6.40625 23.166 5ZM15.666 5C15.666 2.26562 17.9316 0 20.666 0C23.4004 0 25.666 2.26562 25.666 5C25.666 7.73438 23.4004 10 20.666 10C17.9316 10 15.666 7.73438 15.666 5ZM8.16602 8.75C9.18164 8.75 10.041 7.89062 10.041 6.875C10.041 5.85938 9.18164 5 8.16602 5C7.15039 5 6.29102 5.85938 6.29102 6.875C6.29102 7.89062 7.15039 8.75 8.16602 8.75ZM8.16602 2.5C10.5879 2.5 12.541 4.45312 12.541 6.875C12.541 9.29688 10.5879 11.25 8.16602 11.25C5.74414 11.25 3.79102 9.29688 3.79102 6.875C3.79102 4.45312 5.74414 2.5 8.16602 2.5ZM33.166 8.75C34.1816 8.75 35.041 7.89062 35.041 6.875C35.041 5.85938 34.1816 5 33.166 5C32.1504 5 31.291 5.85938 31.291 6.875C31.291 7.89062 32.1504 8.75 33.166 8.75ZM33.166 2.5C35.5879 2.5 37.541 4.45312 37.541 6.875C37.541 9.29688 35.5879 11.25 33.166 11.25C30.7441 11.25 28.791 9.29688 28.791 6.875C28.791 4.45312 30.7441 2.5 33.166 2.5ZM10.5879 15.0781C10.041 15.8594 9.57227 16.6406 9.18164 17.5C5.82227 17.5781 3.16602 20.3906 3.16602 23.75C3.16602 25.625 3.94727 27.2656 5.27539 28.4375C5.50977 28.6719 5.66602 28.9844 5.66602 29.375V36.25C5.66602 36.9531 5.11914 37.5 4.41602 37.5C3.71289 37.5 3.16602 36.9531 3.16602 36.25V29.8438C1.60352 28.2812 0.666016 26.1719 0.666016 23.75C0.666016 18.9062 4.57227 15 9.41602 15C9.80664 15 10.1973 15 10.5879 15.0781ZM32.1504 17.5C31.7598 16.6406 31.291 15.8594 30.7441 15.0781C31.1348 15 31.5254 15 31.916 15C36.7598 15 40.666 18.9062 40.666 23.75C40.666 26.1719 39.7285 28.2812 38.166 29.8438V36.25C38.166 36.9531 37.6191 37.5 36.916 37.5C36.2129 37.5 35.666 36.9531 35.666 36.25V29.375C35.666 28.9844 35.8223 28.6719 36.0566 28.4375C37.3848 27.2656 38.166 25.625 38.166 23.75C38.166 20.3906 35.5098 17.6562 32.1504 17.5ZM20.666 16.25C17.2285 16.25 14.416 19.0625 14.416 22.5V23.75C14.416 25.625 15.1973 27.2656 16.5254 28.4375C16.7598 28.6719 16.916 28.9844 16.916 29.375V35.625C16.916 36.6406 17.7754 37.5 18.791 37.5H22.541C23.5566 37.5 24.416 36.6406 24.416 35.625V29.375C24.416 28.9844 24.5723 28.6719 24.8066 28.4375C26.1348 27.2656 26.916 25.625 26.916 23.75V22.5C26.916 19.0625 24.1035 16.25 20.666 16.25ZM11.916 22.5C11.916 17.6562 15.8223 13.75 20.666 13.75C25.5098 13.75 29.416 17.6562 29.416 22.5V23.75C29.416 26.1719 28.4785 28.2812 26.916 29.8438V35.625C26.916 38.0469 24.9629 40 22.541 40H18.791C16.3691 40 14.416 38.0469 14.416 35.625V29.8438C12.8535 28.2812 11.916 26.1719 11.916 23.75V22.5Z" fill="#D0009E" style="fill:#D0009E;fill:color(display-p3 0.8157 0.0000 0.6196);fill-opacity:1;"/>
</svg>
