<svg width="46" height="36" viewBox="0 0 46 36" fill="none" xmlns="http://www.w3.org/2000/svg">
<path d="M44.1621 2.76562H44.2402L37.3652 7.76562C36.8965 8.07812 36.3496 8.07812 35.8809 7.76562L34.0059 6.51562C32.9902 5.89062 31.8184 5.5 30.5684 5.5H23.3809L13.3809 15.5L13.459 15.5781C15.8809 18 19.7871 18 22.2871 15.5781L25.7246 12.1406C26.1934 11.6719 26.9746 11.6719 27.4434 12.1406L36.4277 21.0469C37.4434 22.0625 37.9902 23.3125 38.2246 24.6406L43.2246 19.6406C43.6934 19.0938 44.4746 19.0938 44.9434 19.6406C45.4902 20.1094 45.4902 20.8906 44.9434 21.3594L36.8184 29.4844C36.8184 29.5625 36.7402 29.5625 36.7402 29.6406C36.6621 29.7188 36.5059 29.7969 36.4277 29.9531L34.1621 32.2188C32.0527 34.3281 29.1621 35.5 26.1934 35.5H19.4746C16.5059 35.5 13.6152 34.3281 11.5059 32.2188L0.724609 21.3594C0.177734 20.8906 0.177734 20.1094 0.724609 19.6406C1.19336 19.1719 1.97461 19.1719 2.44336 19.6406L13.3027 30.4219C14.9434 32.0625 17.1309 33 19.4746 33H21.6621L20.0996 31.3594C19.5527 30.8906 19.5527 30.1094 20.0996 29.6406C20.5684 29.1719 21.3496 29.1719 21.8184 29.6406L25.2559 33H26.1934C28.0684 33 29.7871 32.4531 31.2715 31.3594L28.8496 28.8594C28.3809 28.3906 28.3809 27.6094 28.8496 27.1406C29.3184 26.6719 30.0996 26.6719 30.5684 27.1406L33.1465 29.6406L34.6309 28.1562C36.1152 26.6719 36.1152 24.3281 34.6309 22.8438L26.584 14.7969L24.0059 17.375C20.6465 20.7344 15.0996 20.7344 11.6621 17.375L11.584 17.2969C10.6465 16.2812 10.6465 14.7188 11.584 13.7031L19.7871 5.5H14.709C13.0684 5.5 11.4277 6.125 10.2559 7.29688L9.94336 7.60938C9.55273 8.07812 8.84961 8.15625 8.38086 7.76562L1.50586 2.76562C0.880859 2.375 0.802734 1.59375 1.19336 1.04688C1.58398 0.5 2.36523 0.34375 2.91211 0.734375L9.00586 5.10938C10.5684 3.78125 12.5996 3 14.709 3H30.5684C32.2871 3 34.0059 3.54688 35.4121 4.48438L36.584 5.1875L42.7559 0.734375C43.3027 0.34375 44.084 0.421875 44.4746 1.04688C44.8652 1.59375 44.7871 2.375 44.1621 2.76562Z" fill="#D0009E" style="fill:#D0009E;fill:color(display-p3 0.8157 0.0000 0.6196);fill-opacity:1;"/>
</svg>
