<svg width="80" height="32" viewBox="0 0 80 32" fill="none" xmlns="http://www.w3.org/2000/svg">
<g clip-path="url(#clip0_2448_7653)">
<path d="M8.52734 8.98141V16.4758C9.35636 15.7621 10.4815 15.3457 11.6658 15.3457C13.0869 15.3457 14.3897 15.9405 15.3371 16.9517C15.9293 14.632 17.0544 12.5502 18.6532 10.8848C16.6991 9.45725 14.2712 8.56506 11.6658 8.56506C10.5999 8.50558 9.53401 8.68402 8.52734 8.98141Z" fill="black" style="fill:black;fill-opacity:1;"/>
<path d="M54.418 10.7658C56.0168 12.4312 57.1419 14.513 57.734 16.8922C58.6223 15.8216 59.9842 15.1673 61.4646 15.1673C62.7081 15.1673 63.774 15.6431 64.6622 16.3569V8.86245C63.6556 8.56506 62.5897 8.38662 61.4646 8.38662C58.7999 8.38662 56.3721 9.27881 54.418 10.7658Z" fill="black" style="fill:black;fill-opacity:1;"/>
<path d="M28.4826 8.38662C21.9689 8.38662 16.6987 13.6803 16.6987 20.1041C16.6987 22.8401 14.4486 25.1004 11.7246 25.1004C9.00074 25.1004 6.75055 22.8401 6.75055 20.1041V3.39033C6.75055 1.54647 5.27017 0 3.37528 0C1.48038 0 0 1.48699 0 3.39033V20.1636C0 26.6468 5.27017 31.9405 11.6654 31.9405C18.0607 31.9405 23.3901 26.6468 23.3901 20.1636C23.3901 17.4275 25.6403 15.1673 28.4234 15.1673C29.8446 15.1673 31.1473 15.8216 32.0947 16.7732C32.6869 14.4535 33.8712 12.4312 35.5292 10.7658C33.5751 9.27881 31.0881 8.38662 28.4826 8.38662Z" fill="black" style="fill:black;fill-opacity:1;"/>
<path d="M45.1223 8.50558C38.6678 8.50558 33.3977 13.7993 33.3977 20.223C33.3977 21.2937 33.0424 22.2454 32.5094 23.0781C31.6212 24.3866 30.1408 25.2193 28.4236 25.2193C26.9432 25.2193 25.6405 24.5651 24.7522 23.5539C24.1601 25.8736 22.9758 27.8959 21.377 29.5613C23.3311 31.1078 25.8181 32 28.4828 32C33.3385 32 37.5428 29.026 39.26 24.7435C39.8522 23.3755 40.1482 21.829 40.1482 20.223C40.1482 17.487 42.3984 15.2268 45.1223 15.2268C48.0831 15.2268 49.6227 17.7249 49.6227 20.223V28.6097C49.6227 30.4535 51.1031 32 52.998 32C54.8929 32 56.3733 30.513 56.3733 28.6097V20.223C56.3733 13.6803 51.3992 8.50558 45.1223 8.50558Z" fill="black" style="fill:black;fill-opacity:1;"/>
<path d="M69.8157 0C67.9801 0 66.4405 1.54647 66.4405 3.39033V20.1041C66.4405 22.6022 64.6048 24.684 62.2362 25.0409C59.986 25.2193 58.4464 24.0297 58.2095 23.8513C58.2095 23.8513 58.1503 28.7881 58.0911 28.7881C58.0911 28.7881 58.0911 31.4052 57.9727 31.4052C59.2162 31.7621 60.3413 31.8216 61.1111 31.881H61.4664C67.9208 31.881 73.191 26.5874 73.191 20.1041V3.39033C73.1318 1.48699 71.6514 0 69.8157 0Z" fill="black" style="fill:black;fill-opacity:1;"/>
<path d="M73.0117 28.4312C73.0117 26.4684 74.5513 24.9219 76.5054 24.9219C78.4595 24.9219 79.9991 26.4684 79.9991 28.4312C79.9991 30.394 78.4595 31.9405 76.5054 31.9405C74.5513 31.9405 73.0117 30.394 73.0117 28.4312Z" fill="#D0009E" style="fill:#D0009E;fill:color(display-p3 0.8157 0.0000 0.6196);fill-opacity:1;"/>
</g>
<defs>
<clipPath id="clip0_2448_7653">
<rect width="80" height="32" fill="white" style="fill:white;fill-opacity:1;"/>
</clipPath>
</defs>
</svg>
