<svg width="120" height="48" viewBox="0 0 120 48" fill="none" xmlns="http://www.w3.org/2000/svg">
<g clip-path="url(#clip0_2105_2705)">
<path d="M12.7905 13.4721V24.7138C14.034 23.6431 15.7217 23.0186 17.4981 23.0186C19.6299 23.0186 21.584 23.9108 23.0052 25.4275C23.8934 21.948 25.581 18.8253 27.9793 16.3271C25.0481 14.1859 21.4064 12.8476 17.4981 12.8476C15.8993 12.7584 14.3005 13.026 12.7905 13.4721Z" fill="white" style="fill:white;fill-opacity:1;"/>
<path d="M81.6284 16.1487C84.0266 18.6468 85.7143 21.7695 86.6025 25.3383C87.9349 23.7323 89.9778 22.7509 92.1984 22.7509C94.0637 22.7509 95.6625 23.4647 96.9948 24.5353V13.2937C95.4848 12.8476 93.886 12.5799 92.1984 12.5799C88.2013 12.5799 84.5596 13.9182 81.6284 16.1487Z" fill="white" style="fill:white;fill-opacity:1;"/>
<path d="M42.7239 12.5799C32.9534 12.5799 25.0481 20.5204 25.0481 30.1561C25.0481 34.2602 21.6728 37.6506 17.587 37.6506C13.5011 37.6506 10.1258 34.2602 10.1258 30.1561V5.0855C10.1258 2.3197 7.90525 0 5.06292 0C2.22058 0 0 2.23048 0 5.0855V30.2454C0 39.9703 7.90526 47.9108 17.4981 47.9108C27.091 47.9108 35.0851 39.9703 35.0851 30.2454C35.0851 26.1413 38.4604 22.7509 42.6351 22.7509C44.7668 22.7509 46.7209 23.7323 48.1421 25.1599C49.0303 21.6803 50.8068 18.6468 53.2939 16.1487C50.3627 13.9182 46.6321 12.5799 42.7239 12.5799Z" fill="white" style="fill:white;fill-opacity:1;"/>
<path d="M67.6832 12.7584C58.0015 12.7584 50.0962 20.6989 50.0962 30.3346C50.0962 31.9405 49.5633 33.368 48.7639 34.6171C47.4315 36.5799 45.211 37.829 42.6351 37.829C40.4145 37.829 38.4604 36.8476 37.1281 35.3309C36.2398 38.8104 34.4634 41.8439 32.0651 44.342C34.9963 46.6617 38.7269 48 42.7239 48C50.0074 48 56.3138 43.539 58.8897 37.1152C59.7779 35.0632 60.2221 32.7435 60.2221 30.3346C60.2221 26.2305 63.5973 22.8401 67.6832 22.8401C72.1243 22.8401 74.4338 26.5874 74.4338 30.3346V42.9145C74.4338 45.6803 76.6543 48 79.4967 48C82.339 48 84.5596 45.7695 84.5596 42.9145V30.3346C84.5596 20.5204 77.0984 12.7584 67.6832 12.7584Z" fill="white" style="fill:white;fill-opacity:1;"/>
<path d="M104.722 0C101.969 0 99.6595 2.3197 99.6595 5.0855V30.1561C99.6595 33.9033 96.906 37.026 93.3531 37.5613C89.9778 37.829 87.6684 36.0446 87.3131 35.777C87.3131 35.777 87.2243 43.1822 87.1355 43.1822C87.1355 43.1822 87.1355 47.1078 86.9578 47.1078C88.8231 47.6431 90.5107 47.7323 91.6654 47.8216H92.1984C101.88 47.8216 109.785 39.881 109.785 30.1561V5.0855C109.697 2.23048 107.476 0 104.722 0Z" fill="white" style="fill:white;fill-opacity:1;"/>
<path d="M109.519 42.6468C109.519 39.7026 111.828 37.3829 114.759 37.3829C117.691 37.3829 120 39.7026 120 42.6468C120 45.5911 117.691 47.9108 114.759 47.9108C111.828 47.9108 109.519 45.5911 109.519 42.6468Z" fill="#D0009E" style="fill:#D0009E;fill:color(display-p3 0.8157 0.0000 0.6196);fill-opacity:1;"/>
</g>
<defs>
<clipPath id="clip0_2105_2705">
<rect width="120" height="48" fill="white" style="fill:white;fill-opacity:1;"/>
</clipPath>
</defs>
</svg>
