<svg width="334" height="378" viewBox="0 0 334 378" fill="none" xmlns="http://www.w3.org/2000/svg">
<rect x="1.468" y="29.2812" width="4.22785" height="4.22785" rx="2.11392" fill="#F0F0F4"/>
<rect x="31.1804" y="29.2812" width="4.22785" height="4.22785" rx="2.11392" fill="#F0F0F4"/>
<rect x="60.8928" y="29.2812" width="4.22785" height="4.22785" rx="2.11392" fill="#D0009E"/>
<rect x="90.6051" y="29.2812" width="4.22785" height="4.22785" rx="2.11392" fill="#F0F0F4"/>
<rect x="120.318" y="29.2812" width="4.22785" height="4.22785" rx="2.11392" fill="#F0F0F4"/>
<rect x="150.03" y="29.2812" width="4.22785" height="4.22785" rx="2.11392" fill="#F0F0F4"/>
<rect x="179.742" y="29.2812" width="4.22785" height="4.22785" rx="2.11392" fill="#F0F0F4"/>
<rect x="209.455" y="29.2812" width="4.22785" height="4.22785" rx="2.11392" fill="#F0F0F4"/>
<rect x="239.167" y="29.2812" width="4.22785" height="4.22785" rx="2.11392" fill="#F0F0F4"/>
<rect x="268.879" y="29.2812" width="4.22785" height="4.22785" rx="2.11392" fill="#F0F0F4"/>
<rect x="298.592" y="29.2812" width="4.22785" height="4.22785" rx="2.11392" fill="#F0F0F4"/>
<rect x="328.304" y="29.2812" width="4.22785" height="4.22785" rx="2.11392" fill="#F0F0F4"/>
<rect x="1.468" y="57.9366" width="4.22785" height="4.22785" rx="2.11392" fill="#F0F0F4"/>
<rect x="31.1804" y="57.9366" width="4.22785" height="4.22785" rx="2.11392" fill="#F0F0F4"/>
<rect x="60.8928" y="57.9366" width="4.22785" height="4.22785" rx="2.11392" fill="#F0F0F4"/>
<rect x="90.6051" y="57.9366" width="4.22785" height="4.22785" rx="2.11392" fill="#F0F0F4"/>
<rect x="120.318" y="57.9366" width="4.22785" height="4.22785" rx="2.11392" fill="#F0F0F4"/>
<rect x="150.03" y="57.9366" width="4.22785" height="4.22785" rx="2.11392" fill="#F0F0F4"/>
<rect x="179.742" y="57.9366" width="4.22785" height="4.22785" rx="2.11392" fill="#F0F0F4"/>
<rect x="209.455" y="57.9366" width="4.22785" height="4.22785" rx="2.11392" fill="#F0F0F4"/>
<rect x="239.167" y="57.9366" width="4.22785" height="4.22785" rx="2.11392" fill="#F0F0F4"/>
<rect x="268.879" y="57.9366" width="4.22785" height="4.22785" rx="2.11392" fill="#F0F0F4"/>
<rect x="298.592" y="57.9366" width="4.22785" height="4.22785" rx="2.11392" fill="#F0F0F4"/>
<rect x="328.304" y="57.9366" width="4.22785" height="4.22785" rx="2.11392" fill="#D0009E"/>
<rect x="1.468" y="86.592" width="4.22785" height="4.22785" rx="2.11392" fill="#F0F0F4"/>
<rect x="31.1804" y="86.592" width="4.22785" height="4.22785" rx="2.11392" fill="#F0F0F4"/>
<rect x="60.8928" y="86.592" width="4.22785" height="4.22785" rx="2.11392" fill="#F0F0F4"/>
<rect x="90.6051" y="86.592" width="4.22785" height="4.22785" rx="2.11392" fill="#F0F0F4"/>
<rect x="120.318" y="86.592" width="4.22785" height="4.22785" rx="2.11392" fill="#F0F0F4"/>
<rect x="150.03" y="86.592" width="4.22785" height="4.22785" rx="2.11392" fill="#F0F0F4"/>
<rect x="179.742" y="86.592" width="4.22785" height="4.22785" rx="2.11392" fill="#F0F0F4"/>
<rect x="209.455" y="86.592" width="4.22785" height="4.22785" rx="2.11392" fill="#F0F0F4"/>
<rect x="239.167" y="86.592" width="4.22785" height="4.22785" rx="2.11392" fill="#F0F0F4"/>
<rect x="268.879" y="86.592" width="4.22785" height="4.22785" rx="2.11392" fill="#D0009E"/>
<rect x="298.592" y="86.592" width="4.22785" height="4.22785" rx="2.11392" fill="#F0F0F4"/>
<rect x="328.304" y="86.592" width="4.22785" height="4.22785" rx="2.11392" fill="#F0F0F4"/>
<rect x="1.468" y="115.247" width="4.22785" height="4.22785" rx="2.11392" fill="#F0F0F4"/>
<rect x="31.1804" y="115.247" width="4.22785" height="4.22785" rx="2.11392" fill="#F0F0F4"/>
<rect x="60.8928" y="115.247" width="4.22785" height="4.22785" rx="2.11392" fill="#F0F0F4"/>
<rect x="90.6051" y="115.247" width="4.22785" height="4.22785" rx="2.11392" fill="#F0F0F4"/>
<rect x="120.318" y="115.247" width="4.22785" height="4.22785" rx="2.11392" fill="#F0F0F4"/>
<rect x="150.03" y="115.247" width="4.22785" height="4.22785" rx="2.11392" fill="#D0009E"/>
<rect x="179.742" y="115.247" width="4.22785" height="4.22785" rx="2.11392" fill="#F0F0F4"/>
<rect x="209.455" y="115.247" width="4.22785" height="4.22785" rx="2.11392" fill="#F0F0F4"/>
<rect x="239.167" y="115.247" width="4.22785" height="4.22785" rx="2.11392" fill="#F0F0F4"/>
<rect x="268.879" y="115.247" width="4.22785" height="4.22785" rx="2.11392" fill="#F0F0F4"/>
<rect x="298.592" y="115.247" width="4.22785" height="4.22785" rx="2.11392" fill="#F0F0F4"/>
<rect x="328.304" y="115.247" width="4.22785" height="4.22785" rx="2.11392" fill="#F0F0F4"/>
<rect x="1.468" y="143.903" width="4.22785" height="4.22785" rx="2.11392" fill="#F0F0F4"/>
<rect x="31.1804" y="143.903" width="4.22785" height="4.22785" rx="2.11392" fill="#F0F0F4"/>
<rect x="60.8928" y="143.903" width="4.22785" height="4.22785" rx="2.11392" fill="#F0F0F4"/>
<rect x="90.6051" y="143.903" width="4.22785" height="4.22785" rx="2.11392" fill="#F0F0F4"/>
<rect x="120.318" y="143.903" width="4.22785" height="4.22785" rx="2.11392" fill="#F0F0F4"/>
<rect x="150.03" y="143.903" width="4.22785" height="4.22785" rx="2.11392" fill="#F0F0F4"/>
<rect x="179.742" y="143.903" width="4.22785" height="4.22785" rx="2.11392" fill="#F0F0F4"/>
<rect x="209.455" y="143.903" width="4.22785" height="4.22785" rx="2.11392" fill="#D0009E"/>
<rect x="239.167" y="143.903" width="4.22785" height="4.22785" rx="2.11392" fill="#F0F0F4"/>
<rect x="268.879" y="143.903" width="4.22785" height="4.22785" rx="2.11392" fill="#F0F0F4"/>
<rect x="298.592" y="143.903" width="4.22785" height="4.22785" rx="2.11392" fill="#F0F0F4"/>
<rect x="328.304" y="143.903" width="4.22785" height="4.22785" rx="2.11392" fill="#F0F0F4"/>
<rect x="1.468" y="172.558" width="4.22785" height="4.22785" rx="2.11392" fill="#D0009E"/>
<rect x="31.1804" y="172.558" width="4.22785" height="4.22785" rx="2.11392" fill="#F0F0F4"/>
<rect x="60.8928" y="172.558" width="4.22785" height="4.22785" rx="2.11392" fill="#F0F0F4"/>
<rect x="90.6051" y="172.558" width="4.22785" height="4.22785" rx="2.11392" fill="#F0F0F4"/>
<rect x="120.318" y="172.558" width="4.22785" height="4.22785" rx="2.11392" fill="#F0F0F4"/>
<rect x="150.03" y="172.558" width="4.22785" height="4.22785" rx="2.11392" fill="#F0F0F4"/>
<rect x="179.742" y="172.558" width="4.22785" height="4.22785" rx="2.11392" fill="#F0F0F4"/>
<rect x="209.455" y="172.558" width="4.22785" height="4.22785" rx="2.11392" fill="#F0F0F4"/>
<rect x="239.167" y="172.558" width="4.22785" height="4.22785" rx="2.11392" fill="#F0F0F4"/>
<rect x="268.879" y="172.558" width="4.22785" height="4.22785" rx="2.11392" fill="#F0F0F4"/>
<rect x="298.592" y="172.558" width="4.22785" height="4.22785" rx="2.11392" fill="#F0F0F4"/>
<rect x="328.304" y="172.558" width="4.22785" height="4.22785" rx="2.11392" fill="#F0F0F4"/>
<rect x="1.468" y="201.214" width="4.22785" height="4.22785" rx="2.11392" fill="#F0F0F4"/>
<rect x="31.1804" y="201.214" width="4.22785" height="4.22785" rx="2.11392" fill="#F0F0F4"/>
<rect x="60.8928" y="201.214" width="4.22785" height="4.22785" rx="2.11392" fill="#F0F0F4"/>
<rect x="90.6051" y="201.214" width="4.22785" height="4.22785" rx="2.11392" fill="#D0009E"/>
<rect x="120.318" y="201.214" width="4.22785" height="4.22785" rx="2.11392" fill="#F0F0F4"/>
<rect x="150.03" y="201.214" width="4.22785" height="4.22785" rx="2.11392" fill="#F0F0F4"/>
<rect x="179.742" y="201.214" width="4.22785" height="4.22785" rx="2.11392" fill="#F0F0F4"/>
<rect x="209.455" y="201.214" width="4.22785" height="4.22785" rx="2.11392" fill="#F0F0F4"/>
<rect x="239.167" y="201.214" width="4.22785" height="4.22785" rx="2.11392" fill="#F0F0F4"/>
<rect x="268.879" y="201.214" width="4.22785" height="4.22785" rx="2.11392" fill="#F0F0F4"/>
<rect x="298.592" y="201.214" width="4.22785" height="4.22785" rx="2.11392" fill="#F0F0F4"/>
<rect x="328.304" y="201.214" width="4.22785" height="4.22785" rx="2.11392" fill="#F0F0F4"/>
<rect x="1.468" y="229.869" width="4.22785" height="4.22785" rx="2.11392" fill="#F0F0F4"/>
<rect x="31.1804" y="229.869" width="4.22785" height="4.22785" rx="2.11392" fill="#F0F0F4"/>
<rect x="60.8928" y="229.869" width="4.22785" height="4.22785" rx="2.11392" fill="#F0F0F4"/>
<rect x="90.6051" y="229.869" width="4.22785" height="4.22785" rx="2.11392" fill="#F0F0F4"/>
<rect x="120.318" y="229.869" width="4.22785" height="4.22785" rx="2.11392" fill="#F0F0F4"/>
<rect x="150.03" y="229.869" width="4.22785" height="4.22785" rx="2.11392" fill="#F0F0F4"/>
<rect x="179.742" y="229.869" width="4.22785" height="4.22785" rx="2.11392" fill="#F0F0F4"/>
<rect x="209.455" y="229.869" width="4.22785" height="4.22785" rx="2.11392" fill="#F0F0F4"/>
<rect x="239.167" y="229.869" width="4.22785" height="4.22785" rx="2.11392" fill="#F0F0F4"/>
<rect x="268.879" y="229.869" width="4.22785" height="4.22785" rx="2.11392" fill="#F0F0F4"/>
<rect x="298.592" y="229.869" width="4.22785" height="4.22785" rx="2.11392" fill="#F0F0F4"/>
<rect x="328.304" y="229.869" width="4.22785" height="4.22785" rx="2.11392" fill="#F0F0F4"/>
<rect x="1.468" y="258.524" width="4.22785" height="4.22785" rx="2.11392" fill="#F0F0F4"/>
<rect x="31.1804" y="258.524" width="4.22785" height="4.22785" rx="2.11392" fill="#F0F0F4"/>
<rect x="60.8928" y="258.524" width="4.22785" height="4.22785" rx="2.11392" fill="#F0F0F4"/>
<rect x="90.6051" y="258.524" width="4.22785" height="4.22785" rx="2.11392" fill="#F0F0F4"/>
<rect x="120.318" y="258.524" width="4.22785" height="4.22785" rx="2.11392" fill="#F0F0F4"/>
<rect x="150.03" y="258.524" width="4.22785" height="4.22785" rx="2.11392" fill="#F0F0F4"/>
<rect x="179.742" y="258.524" width="4.22785" height="4.22785" rx="2.11392" fill="#F0F0F4"/>
<rect x="209.455" y="258.524" width="4.22785" height="4.22785" rx="2.11392" fill="#F0F0F4"/>
<rect x="239.167" y="258.524" width="4.22785" height="4.22785" rx="2.11392" fill="#F0F0F4"/>
<rect x="268.879" y="258.524" width="4.22785" height="4.22785" rx="2.11392" fill="#D0009E"/>
<rect x="298.592" y="258.524" width="4.22785" height="4.22785" rx="2.11392" fill="#F0F0F4"/>
<rect x="328.304" y="258.524" width="4.22785" height="4.22785" rx="2.11392" fill="#F0F0F4"/>
<rect x="1.468" y="287.18" width="4.22785" height="4.22785" rx="2.11392" fill="#F0F0F4"/>
<rect x="31.1804" y="287.18" width="4.22785" height="4.22785" rx="2.11392" fill="#F0F0F4"/>
<rect x="60.8928" y="287.18" width="4.22785" height="4.22785" rx="2.11392" fill="#F0F0F4"/>
<rect x="90.6051" y="287.18" width="4.22785" height="4.22785" rx="2.11392" fill="#F0F0F4"/>
<rect x="120.318" y="287.18" width="4.22785" height="4.22785" rx="2.11392" fill="#F0F0F4"/>
<rect x="150.03" y="287.18" width="4.22785" height="4.22785" rx="2.11392" fill="#F0F0F4"/>
<rect x="179.742" y="287.18" width="4.22785" height="4.22785" rx="2.11392" fill="#F0F0F4"/>
<rect x="209.455" y="287.18" width="4.22785" height="4.22785" rx="2.11392" fill="#F0F0F4"/>
<rect x="239.167" y="287.18" width="4.22785" height="4.22785" rx="2.11392" fill="#F0F0F4"/>
<rect x="268.879" y="287.18" width="4.22785" height="4.22785" rx="2.11392" fill="#F0F0F4"/>
<rect x="298.592" y="287.18" width="4.22785" height="4.22785" rx="2.11392" fill="#F0F0F4"/>
<rect x="328.304" y="287.18" width="4.22785" height="4.22785" rx="2.11392" fill="#F0F0F4"/>
<rect x="1.468" y="315.835" width="4.22785" height="4.22785" rx="2.11392" fill="#F0F0F4"/>
<rect x="31.1804" y="315.835" width="4.22785" height="4.22785" rx="2.11392" fill="#F0F0F4"/>
<rect x="60.8928" y="315.835" width="4.22785" height="4.22785" rx="2.11392" fill="#F0F0F4"/>
<rect x="90.6051" y="315.835" width="4.22785" height="4.22785" rx="2.11392" fill="#F0F0F4"/>
<rect x="120.318" y="315.835" width="4.22785" height="4.22785" rx="2.11392" fill="#D0009E"/>
<rect x="150.03" y="315.835" width="4.22785" height="4.22785" rx="2.11392" fill="#F0F0F4"/>
<rect x="179.742" y="315.835" width="4.22785" height="4.22785" rx="2.11392" fill="#F0F0F4"/>
<rect x="209.455" y="315.835" width="4.22785" height="4.22785" rx="2.11392" fill="#F0F0F4"/>
<rect x="239.167" y="315.835" width="4.22785" height="4.22785" rx="2.11392" fill="#F0F0F4"/>
<rect x="268.879" y="315.835" width="4.22785" height="4.22785" rx="2.11392" fill="#F0F0F4"/>
<rect x="298.592" y="315.835" width="4.22785" height="4.22785" rx="2.11392" fill="#F0F0F4"/>
<rect x="328.304" y="315.835" width="4.22785" height="4.22785" rx="2.11392" fill="#F0F0F4"/>
<rect x="1.468" y="344.491" width="4.22785" height="4.22785" rx="2.11392" fill="#F0F0F4"/>
<rect x="31.1804" y="344.491" width="4.22785" height="4.22785" rx="2.11392" fill="#F0F0F4"/>
<rect x="60.8928" y="344.491" width="4.22785" height="4.22785" rx="2.11392" fill="#F0F0F4"/>
<rect x="90.6051" y="344.491" width="4.22785" height="4.22785" rx="2.11392" fill="#F0F0F4"/>
<rect x="120.318" y="344.491" width="4.22785" height="4.22785" rx="2.11392" fill="#F0F0F4"/>
<rect x="150.03" y="344.491" width="4.22785" height="4.22785" rx="2.11392" fill="#F0F0F4"/>
<rect x="179.742" y="344.491" width="4.22785" height="4.22785" rx="2.11392" fill="#D0009E"/>
<rect x="209.455" y="344.491" width="4.22785" height="4.22785" rx="2.11392" fill="#F0F0F4"/>
<rect x="239.167" y="344.491" width="4.22785" height="4.22785" rx="2.11392" fill="#F0F0F4"/>
<rect x="268.879" y="344.491" width="4.22785" height="4.22785" rx="2.11392" fill="#F0F0F4"/>
<rect x="298.592" y="344.491" width="4.22785" height="4.22785" rx="2.11392" fill="#F0F0F4"/>
<rect x="328.304" y="344.491" width="4.22785" height="4.22785" rx="2.11392" fill="#F0F0F4"/>
</svg>
