<svg width="474" height="543" viewBox="0 0 474 543" fill="none" xmlns="http://www.w3.org/2000/svg">
<rect x="2.08333" y="41.625" width="6" height="6" rx="3" fill="#F0F0F4"/>
<rect x="44.25" y="41.625" width="6" height="6" rx="3" fill="#F0F0F4"/>
<rect x="86.4167" y="41.625" width="6" height="6" rx="3" fill="#D0009E"/>
<rect x="128.583" y="41.625" width="6" height="6" rx="3" fill="#F0F0F4"/>
<rect x="170.75" y="41.625" width="6" height="6" rx="3" fill="#F0F0F4"/>
<rect x="212.917" y="41.625" width="6" height="6" rx="3" fill="#F0F0F4"/>
<rect x="255.083" y="41.625" width="6" height="6" rx="3" fill="#F0F0F4"/>
<rect x="297.25" y="41.625" width="6" height="6" rx="3" fill="#F0F0F4"/>
<rect x="339.417" y="41.625" width="6" height="6" rx="3" fill="#F0F0F4"/>
<rect x="381.583" y="41.625" width="6" height="6" rx="3" fill="#F0F0F4"/>
<rect x="423.75" y="41.625" width="6" height="6" rx="3" fill="#F0F0F4"/>
<rect x="465.917" y="41.625" width="6" height="6" rx="3" fill="#F0F0F4"/>
<rect x="2.08333" y="82.875" width="6" height="6" rx="3" fill="#F0F0F4"/>
<rect x="44.25" y="82.875" width="6" height="6" rx="3" fill="#F0F0F4"/>
<rect x="86.4167" y="82.875" width="6" height="6" rx="3" fill="#F0F0F4"/>
<rect x="128.583" y="82.875" width="6" height="6" rx="3" fill="#F0F0F4"/>
<rect x="170.75" y="82.875" width="6" height="6" rx="3" fill="#F0F0F4"/>
<rect x="212.917" y="82.875" width="6" height="6" rx="3" fill="#F0F0F4"/>
<rect x="255.083" y="82.875" width="6" height="6" rx="3" fill="#F0F0F4"/>
<rect x="297.25" y="82.875" width="6" height="6" rx="3" fill="#F0F0F4"/>
<rect x="339.417" y="82.875" width="6" height="6" rx="3" fill="#F0F0F4"/>
<rect x="381.583" y="82.875" width="6" height="6" rx="3" fill="#F0F0F4"/>
<rect x="423.75" y="82.875" width="6" height="6" rx="3" fill="#F0F0F4"/>
<rect x="465.917" y="82.875" width="6" height="6" rx="3" fill="#D0009E"/>
<rect x="2.08333" y="124.125" width="6" height="6" rx="3" fill="#F0F0F4"/>
<rect x="44.25" y="124.125" width="6" height="6" rx="3" fill="#F0F0F4"/>
<rect x="86.4167" y="124.125" width="6" height="6" rx="3" fill="#F0F0F4"/>
<rect x="128.583" y="124.125" width="6" height="6" rx="3" fill="#F0F0F4"/>
<rect x="170.75" y="124.125" width="6" height="6" rx="3" fill="#F0F0F4"/>
<rect x="212.917" y="124.125" width="6" height="6" rx="3" fill="#F0F0F4"/>
<rect x="255.083" y="124.125" width="6" height="6" rx="3" fill="#F0F0F4"/>
<rect x="297.25" y="124.125" width="6" height="6" rx="3" fill="#F0F0F4"/>
<rect x="339.417" y="124.125" width="6" height="6" rx="3" fill="#F0F0F4"/>
<rect x="381.583" y="124.125" width="6" height="6" rx="3" fill="#D0009E"/>
<rect x="423.75" y="124.125" width="6" height="6" rx="3" fill="#F0F0F4"/>
<rect x="465.917" y="124.125" width="6" height="6" rx="3" fill="#F0F0F4"/>
<rect x="2.08333" y="165.375" width="6" height="6" rx="3" fill="#F0F0F4"/>
<rect x="44.25" y="165.375" width="6" height="6" rx="3" fill="#F0F0F4"/>
<rect x="86.4167" y="165.375" width="6" height="6" rx="3" fill="#F0F0F4"/>
<rect x="128.583" y="165.375" width="6" height="6" rx="3" fill="#F0F0F4"/>
<rect x="170.75" y="165.375" width="6" height="6" rx="3" fill="#F0F0F4"/>
<rect x="212.917" y="165.375" width="6" height="6" rx="3" fill="#D0009E"/>
<rect x="255.083" y="165.375" width="6" height="6" rx="3" fill="#F0F0F4"/>
<rect x="297.25" y="165.375" width="6" height="6" rx="3" fill="#F0F0F4"/>
<rect x="339.417" y="165.375" width="6" height="6" rx="3" fill="#F0F0F4"/>
<rect x="381.583" y="165.375" width="6" height="6" rx="3" fill="#F0F0F4"/>
<rect x="423.75" y="165.375" width="6" height="6" rx="3" fill="#F0F0F4"/>
<rect x="465.917" y="165.375" width="6" height="6" rx="3" fill="#F0F0F4"/>
<rect x="2.08333" y="206.625" width="6" height="6" rx="3" fill="#F0F0F4"/>
<rect x="44.25" y="206.625" width="6" height="6" rx="3" fill="#F0F0F4"/>
<rect x="86.4167" y="206.625" width="6" height="6" rx="3" fill="#F0F0F4"/>
<rect x="128.583" y="206.625" width="6" height="6" rx="3" fill="#F0F0F4"/>
<rect x="170.75" y="206.625" width="6" height="6" rx="3" fill="#F0F0F4"/>
<rect x="212.917" y="206.625" width="6" height="6" rx="3" fill="#F0F0F4"/>
<rect x="255.083" y="206.625" width="6" height="6" rx="3" fill="#F0F0F4"/>
<rect x="297.25" y="206.625" width="6" height="6" rx="3" fill="#D0009E"/>
<rect x="339.417" y="206.625" width="6" height="6" rx="3" fill="#F0F0F4"/>
<rect x="381.583" y="206.625" width="6" height="6" rx="3" fill="#F0F0F4"/>
<rect x="423.75" y="206.625" width="6" height="6" rx="3" fill="#F0F0F4"/>
<rect x="465.917" y="206.625" width="6" height="6" rx="3" fill="#F0F0F4"/>
<rect x="2.08333" y="247.875" width="6" height="6" rx="3" fill="#D0009E"/>
<rect x="44.25" y="247.875" width="6" height="6" rx="3" fill="#F0F0F4"/>
<rect x="86.4167" y="247.875" width="6" height="6" rx="3" fill="#F0F0F4"/>
<rect x="128.583" y="247.875" width="6" height="6" rx="3" fill="#F0F0F4"/>
<rect x="170.75" y="247.875" width="6" height="6" rx="3" fill="#F0F0F4"/>
<rect x="212.917" y="247.875" width="6" height="6" rx="3" fill="#F0F0F4"/>
<rect x="255.083" y="247.875" width="6" height="6" rx="3" fill="#F0F0F4"/>
<rect x="297.25" y="247.875" width="6" height="6" rx="3" fill="#F0F0F4"/>
<rect x="339.417" y="247.875" width="6" height="6" rx="3" fill="#F0F0F4"/>
<rect x="381.583" y="247.875" width="6" height="6" rx="3" fill="#F0F0F4"/>
<rect x="423.75" y="247.875" width="6" height="6" rx="3" fill="#F0F0F4"/>
<rect x="465.917" y="247.875" width="6" height="6" rx="3" fill="#F0F0F4"/>
<rect x="2.08333" y="289.125" width="6" height="6" rx="3" fill="#F0F0F4"/>
<rect x="44.25" y="289.125" width="6" height="6" rx="3" fill="#F0F0F4"/>
<rect x="86.4167" y="289.125" width="6" height="6" rx="3" fill="#F0F0F4"/>
<rect x="128.583" y="289.125" width="6" height="6" rx="3" fill="#D0009E"/>
<rect x="170.75" y="289.125" width="6" height="6" rx="3" fill="#F0F0F4"/>
<rect x="212.917" y="289.125" width="6" height="6" rx="3" fill="#F0F0F4"/>
<rect x="255.083" y="289.125" width="6" height="6" rx="3" fill="#F0F0F4"/>
<rect x="297.25" y="289.125" width="6" height="6" rx="3" fill="#F0F0F4"/>
<rect x="339.417" y="289.125" width="6" height="6" rx="3" fill="#F0F0F4"/>
<rect x="381.583" y="289.125" width="6" height="6" rx="3" fill="#F0F0F4"/>
<rect x="423.75" y="289.125" width="6" height="6" rx="3" fill="#F0F0F4"/>
<rect x="465.917" y="289.125" width="6" height="6" rx="3" fill="#F0F0F4"/>
<rect x="2.08333" y="330.375" width="6" height="6" rx="3" fill="#F0F0F4"/>
<rect x="44.25" y="330.375" width="6" height="6" rx="3" fill="#F0F0F4"/>
<rect x="86.4167" y="330.375" width="6" height="6" rx="3" fill="#F0F0F4"/>
<rect x="128.583" y="330.375" width="6" height="6" rx="3" fill="#F0F0F4"/>
<rect x="170.75" y="330.375" width="6" height="6" rx="3" fill="#F0F0F4"/>
<rect x="212.917" y="330.375" width="6" height="6" rx="3" fill="#F0F0F4"/>
<rect x="255.083" y="330.375" width="6" height="6" rx="3" fill="#F0F0F4"/>
<rect x="297.25" y="330.375" width="6" height="6" rx="3" fill="#F0F0F4"/>
<rect x="339.417" y="330.375" width="6" height="6" rx="3" fill="#F0F0F4"/>
<rect x="381.583" y="330.375" width="6" height="6" rx="3" fill="#F0F0F4"/>
<rect x="423.75" y="330.375" width="6" height="6" rx="3" fill="#F0F0F4"/>
<rect x="465.917" y="330.375" width="6" height="6" rx="3" fill="#F0F0F4"/>
<rect x="2.08333" y="371.625" width="6" height="6" rx="3" fill="#F0F0F4"/>
<rect x="44.25" y="371.625" width="6" height="6" rx="3" fill="#F0F0F4"/>
<rect x="86.4167" y="371.625" width="6" height="6" rx="3" fill="#F0F0F4"/>
<rect x="128.583" y="371.625" width="6" height="6" rx="3" fill="#F0F0F4"/>
<rect x="170.75" y="371.625" width="6" height="6" rx="3" fill="#F0F0F4"/>
<rect x="212.917" y="371.625" width="6" height="6" rx="3" fill="#F0F0F4"/>
<rect x="255.083" y="371.625" width="6" height="6" rx="3" fill="#F0F0F4"/>
<rect x="297.25" y="371.625" width="6" height="6" rx="3" fill="#F0F0F4"/>
<rect x="339.417" y="371.625" width="6" height="6" rx="3" fill="#F0F0F4"/>
<rect x="381.583" y="371.625" width="6" height="6" rx="3" fill="#D0009E"/>
<rect x="423.75" y="371.625" width="6" height="6" rx="3" fill="#F0F0F4"/>
<rect x="465.917" y="371.625" width="6" height="6" rx="3" fill="#F0F0F4"/>
<rect x="2.08333" y="412.875" width="6" height="6" rx="3" fill="#F0F0F4"/>
<rect x="44.25" y="412.875" width="6" height="6" rx="3" fill="#F0F0F4"/>
<rect x="86.4167" y="412.875" width="6" height="6" rx="3" fill="#F0F0F4"/>
<rect x="128.583" y="412.875" width="6" height="6" rx="3" fill="#F0F0F4"/>
<rect x="170.75" y="412.875" width="6" height="6" rx="3" fill="#F0F0F4"/>
<rect x="212.917" y="412.875" width="6" height="6" rx="3" fill="#F0F0F4"/>
<rect x="255.083" y="412.875" width="6" height="6" rx="3" fill="#F0F0F4"/>
<rect x="297.25" y="412.875" width="6" height="6" rx="3" fill="#F0F0F4"/>
<rect x="339.417" y="412.875" width="6" height="6" rx="3" fill="#F0F0F4"/>
<rect x="381.583" y="412.875" width="6" height="6" rx="3" fill="#F0F0F4"/>
<rect x="423.75" y="412.875" width="6" height="6" rx="3" fill="#F0F0F4"/>
<rect x="465.917" y="412.875" width="6" height="6" rx="3" fill="#F0F0F4"/>
<rect x="2.08333" y="454.125" width="6" height="6" rx="3" fill="#F0F0F4"/>
<rect x="44.25" y="454.125" width="6" height="6" rx="3" fill="#F0F0F4"/>
<rect x="86.4167" y="454.125" width="6" height="6" rx="3" fill="#F0F0F4"/>
<rect x="128.583" y="454.125" width="6" height="6" rx="3" fill="#F0F0F4"/>
<rect x="170.75" y="454.125" width="6" height="6" rx="3" fill="#D0009E"/>
<rect x="212.917" y="454.125" width="6" height="6" rx="3" fill="#F0F0F4"/>
<rect x="255.083" y="454.125" width="6" height="6" rx="3" fill="#F0F0F4"/>
<rect x="297.25" y="454.125" width="6" height="6" rx="3" fill="#F0F0F4"/>
<rect x="339.417" y="454.125" width="6" height="6" rx="3" fill="#F0F0F4"/>
<rect x="381.583" y="454.125" width="6" height="6" rx="3" fill="#F0F0F4"/>
<rect x="423.75" y="454.125" width="6" height="6" rx="3" fill="#F0F0F4"/>
<rect x="465.917" y="454.125" width="6" height="6" rx="3" fill="#F0F0F4"/>
<rect x="2.08333" y="495.375" width="6" height="6" rx="3" fill="#F0F0F4"/>
<rect x="44.25" y="495.375" width="6" height="6" rx="3" fill="#F0F0F4"/>
<rect x="86.4167" y="495.375" width="6" height="6" rx="3" fill="#F0F0F4"/>
<rect x="128.583" y="495.375" width="6" height="6" rx="3" fill="#F0F0F4"/>
<rect x="170.75" y="495.375" width="6" height="6" rx="3" fill="#F0F0F4"/>
<rect x="212.917" y="495.375" width="6" height="6" rx="3" fill="#F0F0F4"/>
<rect x="255.083" y="495.375" width="6" height="6" rx="3" fill="#D0009E"/>
<rect x="297.25" y="495.375" width="6" height="6" rx="3" fill="#F0F0F4"/>
<rect x="339.417" y="495.375" width="6" height="6" rx="3" fill="#F0F0F4"/>
<rect x="381.583" y="495.375" width="6" height="6" rx="3" fill="#F0F0F4"/>
<rect x="423.75" y="495.375" width="6" height="6" rx="3" fill="#F0F0F4"/>
<rect x="465.917" y="495.375" width="6" height="6" rx="3" fill="#F0F0F4"/>
</svg>
