<svg width="25" height="25" viewBox="0 0 25 25" fill="none" xmlns="http://www.w3.org/2000/svg">
<path d="M17.25 9.75C17.25 5.625 13.875 2.25 9.75 2.25C5.625 2.25 2.25 5.625 2.25 9.75C2.25 13.875 5.625 17.25 9.75 17.25C13.875 17.25 17.25 13.875 17.25 9.75ZM15.7969 17.3906C14.1562 18.7031 12.0469 19.5 9.75 19.5C4.35938 19.5 0 15.1406 0 9.75C0 4.35938 4.35938 0 9.75 0C15.1406 0 19.5 4.35938 19.5 9.75C19.5 12.0469 18.7031 14.1562 17.3906 15.7969L23.6719 22.0781C24.0938 22.5 24.0938 23.25 23.6719 23.6719C23.25 24.0938 22.5 24.0938 22.0781 23.6719L15.7969 17.3906Z" fill="#D0009E" style="fill:#D0009E;fill:color(display-p3 0.8157 0.0000 0.6196);fill-opacity:1;"/>
</svg>
